<?xml version="1.0" encoding="UTF-8" standalone="no"?>
<!DOCTYPE svg PUBLIC "-//W3C//DTD SVG 1.1//EN"
 "http://www.w3.org/Graphics/SVG/1.1/DTD/svg11.dtd">
<!-- Generated by graphviz version 12.2.1 (20241206.2353)
 -->
<!-- Title: G Pages: 1 -->
<svg width="1752pt" height="1232pt"
 viewBox="0.00 0.00 1751.50 1231.75" xmlns="http://www.w3.org/2000/svg" xmlns:xlink="http://www.w3.org/1999/xlink">
<g id="graph0" class="graph" transform="scale(1 1) rotate(0) translate(36 1195.75)">
<title>G</title>
<polygon fill="#f7f7f7" stroke="none" points="-36,36 -36,-1195.75 1715.5,-1195.75 1715.5,36 -36,36"/>
<!-- appmodelsagent -->
<g id="node1" class="node">
<title>appmodelsagent</title>
<polygon fill="none" stroke="black" points="109,-748.5 9,-748.5 9,-648.5 109,-648.5 109,-748.5"/>
<polygon fill="#d3d3d3" stroke="none" points="9,-709.25 9,-748.5 109,-748.5 109,-709.25 9,-709.25"/>
<polygon fill="none" stroke="black" points="9,-709.25 9,-748.5 109,-748.5 109,-709.25 9,-709.25"/>
<text text-anchor="start" x="41.38" y="-724.2" font-family="Helvetica Neue" font-size="14.00" fill="#333333">Agent</text>
</g>
<!-- appmodelsagentcategory -->
<g id="node2" class="node">
<title>appmodelsagentcategory</title>
<polygon fill="none" stroke="black" points="378.5,-842.5 266.5,-842.5 266.5,-742.5 378.5,-742.5 378.5,-842.5"/>
<polygon fill="#d3d3d3" stroke="none" points="266.5,-803.25 266.5,-842.5 378.5,-842.5 378.5,-803.25 266.5,-803.25"/>
<polygon fill="none" stroke="black" points="266.5,-803.25 266.5,-842.5 378.5,-842.5 378.5,-803.25 266.5,-803.25"/>
<text text-anchor="start" x="277.5" y="-818.2" font-family="Helvetica Neue" font-size="14.00" fill="#333333">AgentCategory</text>
</g>
<!-- appmodelsagent&#45;&gt;appmodelsagentcategory -->
<g id="edge1" class="edge">
<title>appmodelsagent:agent_category_id&#45;&gt;appmodelsagentcategory:id</title>
<path fill="none" stroke="#f77f00" stroke-width="1.8" d="M118.77,-727.88C153.21,-745.1 190,-763.5 190,-763.5 190,-763.5 226.8,-771.61 261.46,-779.26"/>
<polygon fill="#f77f00" stroke="#f77f00" stroke-width="1.8" points="118.63,-727.82 111.7,-719.32 113.62,-725.31 110.22,-723.61 110.22,-723.61 110.22,-723.61 113.62,-725.31 107.67,-727.37 118.63,-727.82"/>
<polygon fill="#f77f00" stroke="#f77f00" stroke-width="1.8" points="266.21,-775.19 264.06,-784.95 262.11,-784.52 264.26,-774.76 266.21,-775.19"/>
<polyline fill="none" stroke="#f77f00" stroke-width="1.8" points="266.11,-780.29 261.23,-779.21"/>
<text text-anchor="middle" x="192.25" y="-768.26" font-family="Helvetica Neue" font-size="14.00"> </text>
<text text-anchor="middle" x="142.48" y="-783.25" font-family="Helvetica Neue" font-size="14.00">BelongsTo</text>
<text text-anchor="middle" x="142.48" y="-766" font-family="Helvetica Neue" font-size="14.00">agentCategory</text>
</g>
<!-- appmodelsordermaster -->
<g id="node3" class="node">
<title>appmodelsordermaster</title>
<polygon fill="none" stroke="black" points="372.5,-615.5 272.5,-615.5 272.5,-515.5 372.5,-515.5 372.5,-615.5"/>
<polygon fill="#d3d3d3" stroke="none" points="272.5,-576.25 272.5,-615.5 372.5,-615.5 372.5,-576.25 272.5,-576.25"/>
<polygon fill="none" stroke="black" points="272.5,-576.25 272.5,-615.5 372.5,-615.5 372.5,-576.25 272.5,-576.25"/>
<text text-anchor="start" x="284.25" y="-591.2" font-family="Helvetica Neue" font-size="14.00" fill="#333333">OrderMaster</text>
</g>
<!-- appmodelsagent&#45;&gt;appmodelsordermaster -->
<g id="edge2" class="edge">
<title>appmodelsagent:id&#45;&gt;appmodelsordermaster:agent_id</title>
<path fill="none" stroke="#fcbf49" stroke-width="1.8" d="M109.49,-673.33C153.04,-651.18 216.5,-618.9 262.64,-595.44"/>
<polygon fill="#fcbf49" stroke="#fcbf49" stroke-width="1.8" points="262.76,-595.38 273.71,-594.85 267.75,-592.84 271.14,-591.12 271.14,-591.12 271.14,-591.12 267.75,-592.84 269.63,-586.83 262.76,-595.38"/>
<text text-anchor="middle" x="192.25" y="-635.95" font-family="Helvetica Neue" font-size="14.00"> </text>
<text text-anchor="middle" x="145.94" y="-621.08" font-family="Helvetica Neue" font-size="14.00">HasMany</text>
<text text-anchor="middle" x="145.94" y="-603.83" font-family="Helvetica Neue" font-size="14.00">orderMasters</text>
</g>
<!-- appmodelsagentcategory&#45;&gt;appmodelsagent -->
<g id="edge3" class="edge">
<title>appmodelsagentcategory:id&#45;&gt;appmodelsagent:agent_category_id</title>
<path fill="none" stroke="#fcbf49" stroke-width="1.8" d="M266.17,-768.86C231.94,-754.24 194.5,-738.25 194.5,-738.25 194.5,-738.25 155.4,-726.7 119.37,-716.05"/>
<polygon fill="#fcbf49" stroke="#fcbf49" stroke-width="1.8" points="119.49,-716.08 111.17,-708.93 114.11,-714.49 110.47,-713.42 110.47,-713.42 110.47,-713.42 114.11,-714.49 108.62,-717.56 119.49,-716.08"/>
<text text-anchor="middle" x="192.25" y="-742.2" font-family="Helvetica Neue" font-size="14.00"> </text>
<text text-anchor="middle" x="166.55" y="-724.89" font-family="Helvetica Neue" font-size="14.00">HasMany</text>
<text text-anchor="middle" x="166.55" y="-707.64" font-family="Helvetica Neue" font-size="14.00">agents</text>
</g>
<!-- appmodelsordermaster&#45;&gt;appmodelsagent -->
<g id="edge16" class="edge">
<title>appmodelsordermaster:agent_id&#45;&gt;appmodelsagent:id</title>
<path fill="none" stroke="#f77f00" stroke-width="1.8" d="M261.96,-579.88C227.15,-588.28 190,-597.25 190,-597.25 190,-597.25 149,-629.18 113.05,-657.18"/>
<polygon fill="#f77f00" stroke="#f77f00" stroke-width="1.8" points="261.85,-579.9 272.63,-581.93 267.3,-578.59 270.99,-577.7 270.99,-577.7 270.99,-577.7 267.3,-578.59 270.52,-573.18 261.85,-579.9"/>
<polygon fill="#f77f00" stroke="#f77f00" stroke-width="1.8" points="113.01,-663.55 106.86,-655.66 108.44,-654.43 114.59,-662.32 113.01,-663.55"/>
<polyline fill="none" stroke="#f77f00" stroke-width="1.8" points="109.15,-660.22 113.09,-657.15"/>
<text text-anchor="middle" x="192.25" y="-601.2" font-family="Helvetica Neue" font-size="14.00"> </text>
<text text-anchor="middle" x="211.48" y="-591.17" font-family="Helvetica Neue" font-size="14.00">BelongsTo</text>
<text text-anchor="middle" x="211.48" y="-573.92" font-family="Helvetica Neue" font-size="14.00">agent</text>
</g>
<!-- appmodelscustomer -->
<g id="node4" class="node">
<title>appmodelscustomer</title>
<polygon fill="none" stroke="black" points="1679.5,-947.5 1579.5,-947.5 1579.5,-847.5 1679.5,-847.5 1679.5,-947.5"/>
<polygon fill="#d3d3d3" stroke="none" points="1579.5,-908.25 1579.5,-947.5 1679.5,-947.5 1679.5,-908.25 1579.5,-908.25"/>
<polygon fill="none" stroke="black" points="1579.5,-908.25 1579.5,-947.5 1679.5,-947.5 1679.5,-908.25 1579.5,-908.25"/>
<text text-anchor="start" x="1600.25" y="-923.2" font-family="Helvetica Neue" font-size="14.00" fill="#333333">Customer</text>
</g>
<!-- appmodelsordermaster&#45;&gt;appmodelscustomer -->
<g id="edge15" class="edge">
<title>appmodelsordermaster:customer_id&#45;&gt;appmodelscustomer:id</title>
<path fill="none" stroke="#f77f00" stroke-width="1.8" d="M349.88,-625.78C414.6,-773.68 576,-1142.5 576,-1142.5 576,-1142.5 576,-1142.5 1364.38,-1142.5 1364.38,-1142.5 1498.39,-1018.18 1575.5,-946.66"/>
<polygon fill="#f77f00" stroke="#f77f00" stroke-width="1.8" points="349.83,-625.66 349.94,-614.69 347.58,-620.53 346.06,-617.05 346.06,-617.05 346.06,-617.05 347.58,-620.53 341.69,-618.3 349.83,-625.66"/>
<polygon fill="#f77f00" stroke="#f77f00" stroke-width="1.8" points="1575,-940.31 1581.8,-947.64 1580.33,-949 1573.53,-941.67 1575,-940.31"/>
<polyline fill="none" stroke="#f77f00" stroke-width="1.8" points="1579.13,-943.3 1575.46,-946.7"/>
<text text-anchor="middle" x="949.75" y="-1146.45" font-family="Helvetica Neue" font-size="14.00"> </text>
<text text-anchor="middle" x="801.41" y="-1129.2" font-family="Helvetica Neue" font-size="14.00">BelongsTo</text>
<text text-anchor="middle" x="801.41" y="-1111.95" font-family="Helvetica Neue" font-size="14.00">customer</text>
</g>
<!-- appmodelsemployee -->
<g id="node8" class="node">
<title>appmodelsemployee</title>
<polygon fill="none" stroke="black" points="627,-803.5 527,-803.5 527,-703.5 627,-703.5 627,-803.5"/>
<polygon fill="#d3d3d3" stroke="none" points="527,-764.25 527,-803.5 627,-803.5 627,-764.25 527,-764.25"/>
<polygon fill="none" stroke="black" points="527,-764.25 527,-803.5 627,-803.5 627,-764.25 527,-764.25"/>
<text text-anchor="start" x="547.38" y="-779.2" font-family="Helvetica Neue" font-size="14.00" fill="#333333">Employee</text>
</g>
<!-- appmodelsordermaster&#45;&gt;appmodelsemployee -->
<g id="edge18" class="edge">
<title>appmodelsordermaster:employee_id&#45;&gt;appmodelsemployee:id</title>
<path fill="none" stroke="#f77f00" stroke-width="1.8" d="M381.36,-608.58C423.96,-640.3 481.44,-683.1 522.88,-713.95"/>
<polygon fill="#f77f00" stroke="#f77f00" stroke-width="1.8" points="381.29,-608.53 375.95,-598.94 376.79,-605.18 373.75,-602.91 373.75,-602.91 373.75,-602.91 376.79,-605.18 370.58,-606.16 381.29,-608.53"/>
<polygon fill="#f77f00" stroke="#f77f00" stroke-width="1.8" points="529.02,-712.29 523.05,-720.31 521.45,-719.12 527.42,-711.1 529.02,-712.29"/>
<polyline fill="none" stroke="#f77f00" stroke-width="1.8" points="526.84,-716.9 522.83,-713.91"/>
<text text-anchor="middle" x="452.75" y="-666.27" font-family="Helvetica Neue" font-size="14.00"> </text>
<text text-anchor="middle" x="421.37" y="-647.96" font-family="Helvetica Neue" font-size="14.00">BelongsTo</text>
<text text-anchor="middle" x="421.37" y="-630.71" font-family="Helvetica Neue" font-size="14.00">employee</text>
</g>
<!-- appmodelsorderdetail -->
<g id="node11" class="node">
<title>appmodelsorderdetail</title>
<polygon fill="none" stroke="black" points="627,-521.5 527,-521.5 527,-421.5 627,-421.5 627,-521.5"/>
<polygon fill="#d3d3d3" stroke="none" points="527,-482.25 527,-521.5 627,-521.5 627,-482.25 527,-482.25"/>
<polygon fill="none" stroke="black" points="527,-482.25 527,-521.5 627,-521.5 627,-482.25 527,-482.25"/>
<text text-anchor="start" x="541.75" y="-497.2" font-family="Helvetica Neue" font-size="14.00" fill="#333333">OrderDetail</text>
</g>
<!-- appmodelsordermaster&#45;&gt;appmodelsorderdetail -->
<g id="edge17" class="edge">
<title>appmodelsordermaster:id&#45;&gt;appmodelsorderdetail:order_master_id</title>
<path fill="none" stroke="#fcbf49" stroke-width="1.8" d="M372.78,-547.15C414.06,-531.79 473.08,-509.81 516.9,-493.5"/>
<polygon fill="#fcbf49" stroke="#fcbf49" stroke-width="1.8" points="516.9,-493.5 527.85,-494.23 522.15,-491.55 525.71,-490.22 525.71,-490.22 525.71,-490.22 522.15,-491.55 524.71,-485.79 516.9,-493.5"/>
<text text-anchor="middle" x="452.75" y="-521.04" font-family="Helvetica Neue" font-size="14.00"> </text>
<text text-anchor="middle" x="407.71" y="-507.03" font-family="Helvetica Neue" font-size="14.00">HasMany</text>
<text text-anchor="middle" x="407.71" y="-489.78" font-family="Helvetica Neue" font-size="14.00">orderDetails</text>
</g>
<!-- appmodelscustomer&#45;&gt;appmodelsordermaster -->
<g id="edge5" class="edge">
<title>appmodelscustomer:id&#45;&gt;appmodelsordermaster:customer_id</title>
<path fill="none" stroke="#fcbf49" stroke-width="1.8" d="M1613.06,-847.05C1556.57,-662.47 1364.38,-34.5 1364.38,-34.5 576,-34.5 576,-34.5 576,-34.5 576,-34.5 418.18,-366.4 352.08,-505.4"/>
<polygon fill="#fcbf49" stroke="#fcbf49" stroke-width="1.8" points="352.04,-505.49 343.68,-512.59 349.63,-510.55 348,-513.98 348,-513.98 348,-513.98 349.63,-510.55 351.8,-516.45 352.04,-505.49"/>
<text text-anchor="middle" x="949.75" y="-38.45" font-family="Helvetica Neue" font-size="14.00"> </text>
<text text-anchor="middle" x="1094.23" y="-21.2" font-family="Helvetica Neue" font-size="14.00">HasMany</text>
<text text-anchor="middle" x="1094.23" y="-3.95" font-family="Helvetica Neue" font-size="14.00">orderMasters</text>
</g>
<!-- appmodelscustomercategory -->
<g id="node5" class="node">
<title>appmodelscustomercategory</title>
<polygon fill="none" stroke="black" points="1431,-947.5 1295.75,-947.5 1295.75,-847.5 1431,-847.5 1431,-947.5"/>
<polygon fill="#d3d3d3" stroke="none" points="1295.75,-908.25 1295.75,-947.5 1431,-947.5 1431,-908.25 1295.75,-908.25"/>
<polygon fill="none" stroke="black" points="1295.75,-908.25 1295.75,-947.5 1431,-947.5 1431,-908.25 1295.75,-908.25"/>
<text text-anchor="start" x="1306.75" y="-923.2" font-family="Helvetica Neue" font-size="14.00" fill="#333333">CustomerCategory</text>
</g>
<!-- appmodelscustomer&#45;&gt;appmodelscustomercategory -->
<g id="edge4" class="edge">
<title>appmodelscustomer:customer_category_id&#45;&gt;appmodelscustomercategory:id</title>
<path fill="none" stroke="#f77f00" stroke-width="1.8" d="M1569.77,-871.17C1538.94,-857.35 1507.5,-843.25 1507.5,-843.25 1507.5,-843.25 1503,-843.25 1503,-843.25 1503,-843.25 1469.75,-856.26 1435.82,-869.54"/>
<polygon fill="#f77f00" stroke="#f77f00" stroke-width="1.8" points="1569.61,-871.1 1576.89,-879.29 1574.72,-873.39 1578.19,-874.94 1578.19,-874.94 1578.19,-874.94 1574.72,-873.39 1580.58,-871.08 1569.61,-871.1"/>
<polygon fill="#f77f00" stroke="#f77f00" stroke-width="1.8" points="1434,-875.62 1430.36,-866.31 1432.22,-865.58 1435.87,-874.89 1434,-875.62"/>
<polyline fill="none" stroke="#f77f00" stroke-width="1.8" points="1431.25,-871.33 1435.91,-869.51"/>
<text text-anchor="middle" x="1505.25" y="-847.2" font-family="Helvetica Neue" font-size="14.00"> </text>
<text text-anchor="middle" x="1447.43" y="-829.95" font-family="Helvetica Neue" font-size="14.00">BelongsTo</text>
<text text-anchor="middle" x="1447.43" y="-812.7" font-family="Helvetica Neue" font-size="14.00">customerCategory</text>
</g>
<!-- appmodelscustomercategory&#45;&gt;appmodelscustomer -->
<g id="edge6" class="edge">
<title>appmodelscustomercategory:id&#45;&gt;appmodelscustomer:customer_category_id</title>
<path fill="none" stroke="#fcbf49" stroke-width="1.8" d="M1431.37,-897.5C1473.6,-897.5 1527.66,-897.5 1568.48,-897.5"/>
<polygon fill="#fcbf49" stroke="#fcbf49" stroke-width="1.8" points="1568.49,-897.5 1578.49,-902 1574.09,-897.5 1577.89,-897.5 1577.89,-897.5 1577.89,-897.5 1574.09,-897.5 1578.49,-893 1568.49,-897.5"/>
<text text-anchor="middle" x="1505.25" y="-901.45" font-family="Helvetica Neue" font-size="14.00"> </text>
<text text-anchor="middle" x="1468.42" y="-884.2" font-family="Helvetica Neue" font-size="14.00">HasMany</text>
<text text-anchor="middle" x="1468.42" y="-866.95" font-family="Helvetica Neue" font-size="14.00">customers</text>
</g>
<!-- appmodelsproductrate -->
<g id="node6" class="node">
<title>appmodelsproductrate</title>
<polygon fill="none" stroke="black" points="1135.62,-737.5 1035.62,-737.5 1035.62,-637.5 1135.62,-637.5 1135.62,-737.5"/>
<polygon fill="#d3d3d3" stroke="none" points="1035.62,-698.25 1035.62,-737.5 1135.62,-737.5 1135.62,-698.25 1035.62,-698.25"/>
<polygon fill="none" stroke="black" points="1035.62,-698.25 1035.62,-737.5 1135.62,-737.5 1135.62,-698.25 1035.62,-698.25"/>
<text text-anchor="start" x="1048.12" y="-713.2" font-family="Helvetica Neue" font-size="14.00" fill="#333333">ProductRate</text>
</g>
<!-- appmodelscustomercategory&#45;&gt;appmodelsproductrate -->
<g id="edge7" class="edge">
<title>appmodelscustomercategory:id&#45;&gt;appmodelsproductrate:customer_category_id</title>
<path fill="none" stroke="#fcbf49" stroke-width="1.8" d="M1296.14,-847.06C1249.83,-811.79 1188.57,-765.14 1144.27,-731.4"/>
<polygon fill="#fcbf49" stroke="#fcbf49" stroke-width="1.8" points="1144.36,-731.47 1139.13,-721.83 1139.9,-728.07 1136.88,-725.77 1136.88,-725.77 1136.88,-725.77 1139.9,-728.07 1133.68,-728.99 1144.36,-731.47"/>
<text text-anchor="middle" x="1221.5" y="-793.3" font-family="Helvetica Neue" font-size="14.00"> </text>
<text text-anchor="middle" x="1179.71" y="-775.93" font-family="Helvetica Neue" font-size="14.00">HasMany</text>
<text text-anchor="middle" x="1179.71" y="-758.68" font-family="Helvetica Neue" font-size="14.00">productRates</text>
</g>
<!-- appmodelsproductrate&#45;&gt;appmodelscustomercategory -->
<g id="edge26" class="edge">
<title>appmodelsproductrate:customer_category_id&#45;&gt;appmodelscustomercategory:id</title>
<path fill="none" stroke="#f77f00" stroke-width="1.8" d="M1142.44,-745.15C1178.7,-782.61 1219.25,-824.5 1219.25,-824.5 1219.25,-824.5 1255.19,-842.83 1291.05,-861.12"/>
<polygon fill="#f77f00" stroke="#f77f00" stroke-width="1.8" points="1142.63,-745.35 1138.91,-735.04 1138.73,-741.33 1136.09,-738.6 1136.09,-738.6 1136.09,-738.6 1138.73,-741.33 1132.44,-741.3 1142.63,-745.35"/>
<polygon fill="#f77f00" stroke="#f77f00" stroke-width="1.8" points="1296.8,-858.44 1292.26,-867.35 1290.48,-866.44 1295.02,-857.53 1296.8,-858.44"/>
<polyline fill="none" stroke="#f77f00" stroke-width="1.8" points="1295.42,-863.35 1290.97,-861.08"/>
<text text-anchor="middle" x="1221.5" y="-830.49" font-family="Helvetica Neue" font-size="14.00"> </text>
<text text-anchor="middle" x="1264.75" y="-817.73" font-family="Helvetica Neue" font-size="14.00">BelongsTo</text>
<text text-anchor="middle" x="1264.75" y="-800.48" font-family="Helvetica Neue" font-size="14.00">customerCategory</text>
</g>
<!-- appmodelspricecode -->
<g id="node13" class="node">
<title>appmodelspricecode</title>
<polygon fill="none" stroke="black" points="1413.38,-655.5 1313.38,-655.5 1313.38,-555.5 1413.38,-555.5 1413.38,-655.5"/>
<polygon fill="#d3d3d3" stroke="none" points="1313.38,-616.25 1313.38,-655.5 1413.38,-655.5 1413.38,-616.25 1313.38,-616.25"/>
<polygon fill="none" stroke="black" points="1313.38,-616.25 1313.38,-655.5 1413.38,-655.5 1413.38,-616.25 1313.38,-616.25"/>
<text text-anchor="start" x="1333" y="-631.2" font-family="Helvetica Neue" font-size="14.00" fill="#333333">PriceCode</text>
</g>
<!-- appmodelsproductrate&#45;&gt;appmodelspricecode -->
<g id="edge27" class="edge">
<title>appmodelsproductrate:price_code_id&#45;&gt;appmodelspricecode:id</title>
<path fill="none" stroke="#f77f00" stroke-width="1.8" d="M1146.06,-684.47C1183.09,-682.58 1223.75,-680.5 1223.75,-680.5 1223.75,-680.5 1269.85,-655.56 1308.88,-634.44"/>
<polygon fill="#f77f00" stroke="#f77f00" stroke-width="1.8" points="1146.33,-684.45 1136.11,-680.47 1140.74,-684.74 1136.95,-684.93 1136.95,-684.93 1136.95,-684.93 1140.74,-684.74 1136.57,-689.46 1146.33,-684.45"/>
<polygon fill="#f77f00" stroke="#f77f00" stroke-width="1.8" points="1309.85,-628.23 1314.61,-637.03 1312.85,-637.98 1308.09,-629.18 1309.85,-628.23"/>
<polyline fill="none" stroke="#f77f00" stroke-width="1.8" points="1313.11,-632.15 1308.71,-634.53"/>
<text text-anchor="middle" x="1221.5" y="-684.65" font-family="Helvetica Neue" font-size="14.00"> </text>
<text text-anchor="middle" x="1262.85" y="-662.68" font-family="Helvetica Neue" font-size="14.00">BelongsTo</text>
<text text-anchor="middle" x="1262.85" y="-645.43" font-family="Helvetica Neue" font-size="14.00">priceCode</text>
</g>
<!-- appmodelsdepartment -->
<g id="node7" class="node">
<title>appmodelsdepartment</title>
<polygon fill="none" stroke="black" points="875.5,-1033.5 775.5,-1033.5 775.5,-933.5 875.5,-933.5 875.5,-1033.5"/>
<polygon fill="#d3d3d3" stroke="none" points="775.5,-994.25 775.5,-1033.5 875.5,-1033.5 875.5,-994.25 775.5,-994.25"/>
<polygon fill="none" stroke="black" points="775.5,-994.25 775.5,-1033.5 875.5,-1033.5 875.5,-994.25 775.5,-994.25"/>
<text text-anchor="start" x="788.75" y="-1009.2" font-family="Helvetica Neue" font-size="14.00" fill="#333333">Department</text>
</g>
<!-- appmodelsdepartment&#45;&gt;appmodelsemployee -->
<g id="edge8" class="edge">
<title>appmodelsdepartment:id&#45;&gt;appmodelsemployee:department_id</title>
<path fill="none" stroke="#fcbf49" stroke-width="1.8" d="M775.29,-937.59C734.85,-899.85 677.49,-846.33 635.04,-806.72"/>
<polygon fill="#fcbf49" stroke="#fcbf49" stroke-width="1.8" points="635.04,-806.72 630.8,-796.61 630.95,-802.9 628.17,-800.31 628.17,-800.31 628.17,-800.31 630.95,-802.9 624.66,-803.19 635.04,-806.72"/>
<text text-anchor="middle" x="701.25" y="-872.45" font-family="Helvetica Neue" font-size="14.00"> </text>
<text text-anchor="middle" x="737.79" y="-858.85" font-family="Helvetica Neue" font-size="14.00">HasMany</text>
<text text-anchor="middle" x="737.79" y="-841.6" font-family="Helvetica Neue" font-size="14.00">employees</text>
</g>
<!-- appmodelsemployee&#45;&gt;appmodelsdepartment -->
<g id="edge10" class="edge">
<title>appmodelsemployee:department_id&#45;&gt;appmodelsdepartment:id</title>
<path fill="none" stroke="#f77f00" stroke-width="1.8" d="M625.32,-812.17C659.26,-854.23 699,-903.5 699,-903.5 699,-903.5 736.95,-927.69 771.11,-949.47"/>
<polygon fill="#f77f00" stroke="#f77f00" stroke-width="1.8" points="625.28,-812.12 622.51,-801.51 621.77,-807.76 619.38,-804.8 619.38,-804.8 619.38,-804.8 621.77,-807.76 615.5,-807.16 625.28,-812.12"/>
<polygon fill="#f77f00" stroke="#f77f00" stroke-width="1.8" points="777.1,-947.36 771.73,-955.79 770.04,-954.72 775.42,-946.28 777.1,-947.36"/>
<polyline fill="none" stroke="#f77f00" stroke-width="1.8" points="775.26,-952.11 771.04,-949.42"/>
<text text-anchor="middle" x="701.25" y="-909.69" font-family="Helvetica Neue" font-size="14.00"> </text>
<text text-anchor="middle" x="653.38" y="-877.81" font-family="Helvetica Neue" font-size="14.00">BelongsTo</text>
<text text-anchor="middle" x="653.38" y="-860.56" font-family="Helvetica Neue" font-size="14.00">department</text>
</g>
<!-- appmodelsdesignation -->
<g id="node9" class="node">
<title>appmodelsdesignation</title>
<polygon fill="none" stroke="black" points="875.5,-861.5 775.5,-861.5 775.5,-761.5 875.5,-761.5 875.5,-861.5"/>
<polygon fill="#d3d3d3" stroke="none" points="775.5,-822.25 775.5,-861.5 875.5,-861.5 875.5,-822.25 775.5,-822.25"/>
<polygon fill="none" stroke="black" points="775.5,-822.25 775.5,-861.5 875.5,-861.5 875.5,-822.25 775.5,-822.25"/>
<text text-anchor="start" x="789.88" y="-837.2" font-family="Helvetica Neue" font-size="14.00" fill="#333333">Designation</text>
</g>
<!-- appmodelsemployee&#45;&gt;appmodelsdesignation -->
<g id="edge11" class="edge">
<title>appmodelsemployee:designation_id&#45;&gt;appmodelsdesignation:id</title>
<path fill="none" stroke="#f77f00" stroke-width="1.8" d="M637.7,-767.55C678.21,-777.08 731.34,-789.58 770.58,-798.81"/>
<polygon fill="#f77f00" stroke="#f77f00" stroke-width="1.8" points="637.61,-767.53 628.91,-760.86 632.16,-766.24 628.46,-765.37 628.46,-765.37 628.46,-765.37 632.16,-766.24 626.85,-769.62 637.61,-767.53"/>
<polygon fill="#f77f00" stroke="#f77f00" stroke-width="1.8" points="775.47,-794.83 773.18,-804.56 771.23,-804.1 773.52,-794.37 775.47,-794.83"/>
<polyline fill="none" stroke="#f77f00" stroke-width="1.8" points="775.29,-799.92 770.43,-798.78"/>
<text text-anchor="middle" x="701.25" y="-786.45" font-family="Helvetica Neue" font-size="14.00"> </text>
<text text-anchor="middle" x="738.64" y="-804.38" font-family="Helvetica Neue" font-size="14.00">BelongsTo</text>
<text text-anchor="middle" x="738.64" y="-787.13" font-family="Helvetica Neue" font-size="14.00">designation</text>
</g>
<!-- appmodelsuser -->
<g id="node10" class="node">
<title>appmodelsuser</title>
<polygon fill="none" stroke="black" points="875.5,-689.5 775.5,-689.5 775.5,-589.5 875.5,-589.5 875.5,-689.5"/>
<polygon fill="#d3d3d3" stroke="none" points="775.5,-650.25 775.5,-689.5 875.5,-689.5 875.5,-650.25 775.5,-650.25"/>
<polygon fill="none" stroke="black" points="775.5,-650.25 775.5,-689.5 875.5,-689.5 875.5,-650.25 775.5,-650.25"/>
<text text-anchor="start" x="811.62" y="-665.2" font-family="Helvetica Neue" font-size="14.00" fill="#333333">User</text>
</g>
<!-- appmodelsemployee&#45;&gt;appmodelsuser -->
<g id="edge12" class="edge">
<title>appmodelsemployee:id&#45;&gt;appmodelsuser:employee_id</title>
<path fill="none" stroke="#fcbf49" stroke-width="1.8" d="M627.29,-730.7C667.18,-712.26 723.46,-686.23 765.7,-666.7"/>
<polygon fill="#fcbf49" stroke="#fcbf49" stroke-width="1.8" points="765.67,-666.71 776.64,-666.59 770.76,-664.35 774.2,-662.76 774.2,-662.76 774.2,-662.76 770.76,-664.35 772.86,-658.42 765.67,-666.71"/>
<text text-anchor="middle" x="701.25" y="-700.45" font-family="Helvetica Neue" font-size="14.00"> </text>
<text text-anchor="middle" x="668.74" y="-719.9" font-family="Helvetica Neue" font-size="14.00">HasMany</text>
<text text-anchor="middle" x="668.74" y="-702.65" font-family="Helvetica Neue" font-size="14.00">users</text>
</g>
<!-- appmodelsdesignation&#45;&gt;appmodelsemployee -->
<g id="edge9" class="edge">
<title>appmodelsdesignation:id&#45;&gt;appmodelsemployee:designation_id</title>
<path fill="none" stroke="#fcbf49" stroke-width="1.8" d="M775.28,-784.96C741.79,-766.9 703.5,-746.25 703.5,-746.25 703.5,-746.25 699,-746.25 699,-746.25 699,-746.25 668.36,-748.09 637.92,-749.91"/>
<polygon fill="#fcbf49" stroke="#fcbf49" stroke-width="1.8" points="637.8,-749.92 627.55,-746.02 632.21,-750.25 628.42,-750.48 628.42,-750.48 628.42,-750.48 632.21,-750.25 628.09,-755.01 637.8,-749.92"/>
<text text-anchor="middle" x="701.25" y="-750.2" font-family="Helvetica Neue" font-size="14.00"> </text>
<text text-anchor="middle" x="743.11" y="-736.72" font-family="Helvetica Neue" font-size="14.00">HasMany</text>
<text text-anchor="middle" x="743.11" y="-719.47" font-family="Helvetica Neue" font-size="14.00">employees</text>
</g>
<!-- appmodelsuser&#45;&gt;appmodelsemployee -->
<g id="edge29" class="edge">
<title>appmodelsuser:employee_id&#45;&gt;appmodelsemployee:id</title>
<path fill="none" stroke="#f77f00" stroke-width="1.8" d="M764.83,-649.84C732.46,-655.45 699,-661.25 699,-661.25 699,-661.25 663.65,-688.2 631.16,-712.97"/>
<polygon fill="#f77f00" stroke="#f77f00" stroke-width="1.8" points="764.81,-649.84 775.43,-652.57 770.33,-648.89 774.07,-648.24 774.07,-648.24 774.07,-648.24 770.33,-648.89 773.9,-643.7 764.81,-649.84"/>
<polygon fill="#f77f00" stroke="#f77f00" stroke-width="1.8" points="631.04,-719.35 624.98,-711.4 626.57,-710.18 632.63,-718.14 631.04,-719.35"/>
<polyline fill="none" stroke="#f77f00" stroke-width="1.8" points="627.22,-715.98 631.19,-712.95"/>
<text text-anchor="middle" x="701.25" y="-665.2" font-family="Helvetica Neue" font-size="14.00"> </text>
<text text-anchor="middle" x="660.9" y="-653.56" font-family="Helvetica Neue" font-size="14.00">BelongsTo</text>
<text text-anchor="middle" x="660.9" y="-636.31" font-family="Helvetica Neue" font-size="14.00">employee</text>
</g>
<!-- appmodelsusertype -->
<g id="node15" class="node">
<title>appmodelsusertype</title>
<polygon fill="none" stroke="black" points="1135.62,-909.5 1035.62,-909.5 1035.62,-809.5 1135.62,-809.5 1135.62,-909.5"/>
<polygon fill="#d3d3d3" stroke="none" points="1035.62,-870.25 1035.62,-909.5 1135.62,-909.5 1135.62,-870.25 1035.62,-870.25"/>
<polygon fill="none" stroke="black" points="1035.62,-870.25 1035.62,-909.5 1135.62,-909.5 1135.62,-870.25 1035.62,-870.25"/>
<text text-anchor="start" x="1057.5" y="-885.2" font-family="Helvetica Neue" font-size="14.00" fill="#333333">UserType</text>
</g>
<!-- appmodelsuser&#45;&gt;appmodelsusertype -->
<g id="edge28" class="edge">
<title>appmodelsuser:user_type_id&#45;&gt;appmodelsusertype:id</title>
<path fill="none" stroke="#f77f00" stroke-width="1.8" d="M876.85,-697.76C910.08,-736.2 947.5,-779.5 947.5,-779.5 947.5,-779.5 992.8,-805.93 1031.33,-828.4"/>
<polygon fill="#f77f00" stroke="#f77f00" stroke-width="1.8" points="876.77,-697.67 873.64,-687.16 873.11,-693.43 870.63,-690.56 870.63,-690.56 870.63,-690.56 873.11,-693.43 866.83,-693.05 876.77,-697.67"/>
<polygon fill="#f77f00" stroke="#f77f00" stroke-width="1.8" points="1037.16,-826.02 1032.12,-834.66 1030.4,-833.65 1035.44,-825.01 1037.16,-826.02"/>
<polyline fill="none" stroke="#f77f00" stroke-width="1.8" points="1035.51,-830.84 1031.19,-828.32"/>
<text text-anchor="middle" x="949.75" y="-785.69" font-family="Helvetica Neue" font-size="14.00"> </text>
<text text-anchor="middle" x="913.16" y="-762.04" font-family="Helvetica Neue" font-size="14.00">BelongsTo</text>
<text text-anchor="middle" x="913.16" y="-744.79" font-family="Helvetica Neue" font-size="14.00">userType</text>
</g>
<!-- appmodelsorderdetail&#45;&gt;appmodelsordermaster -->
<g id="edge13" class="edge">
<title>appmodelsorderdetail:order_master_id&#45;&gt;appmodelsordermaster:id</title>
<path fill="none" stroke="#f77f00" stroke-width="1.8" d="M516.08,-467.91C485.64,-466.09 455,-464.25 455,-464.25 455,-464.25 450.5,-464.25 450.5,-464.25 450.5,-464.25 411.52,-495.33 376.75,-523.05"/>
<polygon fill="#f77f00" stroke="#f77f00" stroke-width="1.8" points="516.2,-467.92 525.91,-473.01 521.79,-468.25 525.58,-468.48 525.58,-468.48 525.58,-468.48 521.79,-468.25 526.45,-464.02 516.2,-467.92"/>
<polygon fill="#f77f00" stroke="#f77f00" stroke-width="1.8" points="376.86,-529.35 370.63,-521.53 372.19,-520.28 378.43,-528.1 376.86,-529.35"/>
<polyline fill="none" stroke="#f77f00" stroke-width="1.8" points="372.97,-526.06 376.87,-522.95"/>
<text text-anchor="middle" x="452.75" y="-468.2" font-family="Helvetica Neue" font-size="14.00"> </text>
<text text-anchor="middle" x="402.18" y="-459.88" font-family="Helvetica Neue" font-size="14.00">BelongsTo</text>
<text text-anchor="middle" x="402.18" y="-442.63" font-family="Helvetica Neue" font-size="14.00">orderMaster</text>
</g>
<!-- appmodelsproduct -->
<g id="node12" class="node">
<title>appmodelsproduct</title>
<polygon fill="none" stroke="black" points="875.5,-498.5 775.5,-498.5 775.5,-398.5 875.5,-398.5 875.5,-498.5"/>
<polygon fill="#d3d3d3" stroke="none" points="775.5,-459.25 775.5,-498.5 875.5,-498.5 875.5,-459.25 775.5,-459.25"/>
<polygon fill="none" stroke="black" points="775.5,-459.25 775.5,-498.5 875.5,-498.5 875.5,-459.25 775.5,-459.25"/>
<text text-anchor="start" x="802.25" y="-474.2" font-family="Helvetica Neue" font-size="14.00" fill="#333333">Product</text>
</g>
<!-- appmodelsorderdetail&#45;&gt;appmodelsproduct -->
<g id="edge14" class="edge">
<title>appmodelsorderdetail:product_id&#45;&gt;appmodelsproduct:id</title>
<path fill="none" stroke="#f77f00" stroke-width="1.8" d="M637.97,-465.9C678.45,-462.13 731.44,-457.18 770.59,-453.53"/>
<polygon fill="#f77f00" stroke="#f77f00" stroke-width="1.8" points="637.85,-465.92 627.47,-462.36 632.27,-466.44 628.49,-466.79 628.49,-466.79 628.49,-466.79 632.27,-466.44 628.31,-471.33 637.85,-465.92"/>
<polygon fill="#f77f00" stroke="#f77f00" stroke-width="1.8" points="773.83,-448.21 774.76,-458.16 772.77,-458.35 771.84,-448.39 773.83,-448.21"/>
<polyline fill="none" stroke="#f77f00" stroke-width="1.8" points="775.29,-453.09 770.32,-453.56"/>
<text text-anchor="middle" x="701.25" y="-463.95" font-family="Helvetica Neue" font-size="14.00"> </text>
<text text-anchor="middle" x="735.03" y="-446.42" font-family="Helvetica Neue" font-size="14.00">BelongsTo</text>
<text text-anchor="middle" x="735.03" y="-429.17" font-family="Helvetica Neue" font-size="14.00">product</text>
</g>
<!-- appmodelsproduct&#45;&gt;appmodelsproductrate -->
<g id="edge24" class="edge">
<title>appmodelsproduct&#45;&gt;appmodelsproductrate</title>
<path fill="none" stroke="#003049" stroke-width="1.8" d="M869.84,-498.65C904.56,-538.82 947.5,-588.5 947.5,-588.5 947.5,-588.5 988.16,-617.85 1025.19,-644.59"/>
<polygon fill="#003049" stroke="#003049" stroke-width="1.8" points="1023.14,-647.43 1033.3,-650.44 1027.24,-641.75 1023.14,-647.43"/>
<text text-anchor="middle" x="949.75" y="-595.22" font-family="Helvetica Neue" font-size="14.00"> </text>
<text text-anchor="middle" x="886.75" y="-566.52" font-family="Helvetica Neue" font-size="14.00">HasManyThrough</text>
<text text-anchor="middle" x="886.75" y="-549.27" font-family="Helvetica Neue" font-size="14.00">productRates</text>
</g>
<!-- appmodelsproduct&#45;&gt;appmodelsorderdetail -->
<g id="edge23" class="edge">
<title>appmodelsproduct:id&#45;&gt;appmodelsorderdetail:product_id</title>
<path fill="none" stroke="#fcbf49" stroke-width="1.8" d="M775.28,-438.64C741.79,-431.92 703.5,-424.25 703.5,-424.25 703.5,-424.25 699,-424.25 699,-424.25 699,-424.25 667.83,-436.42 637.13,-448.41"/>
<polygon fill="#fcbf49" stroke="#fcbf49" stroke-width="1.8" points="637.09,-448.43 626.14,-447.87 631.87,-450.46 628.34,-451.84 628.34,-451.84 628.34,-451.84 631.87,-450.46 629.41,-456.25 637.09,-448.43"/>
<text text-anchor="middle" x="701.25" y="-428.2" font-family="Helvetica Neue" font-size="14.00"> </text>
<text text-anchor="middle" x="667.5" y="-411.17" font-family="Helvetica Neue" font-size="14.00">HasMany</text>
<text text-anchor="middle" x="667.5" y="-393.92" font-family="Helvetica Neue" font-size="14.00">orderDetails</text>
</g>
<!-- appmodelsproduct&#45;&gt;appmodelspricecode -->
<g id="edge22" class="edge">
<title>appmodelsproduct:price_code_id&#45;&gt;appmodelspricecode:id</title>
<path fill="none" stroke="#f77f00" stroke-width="1.8" d="M886.22,-466C991.26,-496.77 1207.45,-560.11 1308.33,-589.66"/>
<polygon fill="#f77f00" stroke="#f77f00" stroke-width="1.8" points="886.13,-465.97 877.8,-458.84 880.75,-464.39 877.11,-463.33 877.11,-463.33 877.11,-463.33 880.75,-464.39 875.27,-467.48 886.13,-465.97"/>
<polygon fill="#f77f00" stroke="#f77f00" stroke-width="1.8" points="1313.49,-585.97 1310.68,-595.56 1308.76,-595 1311.57,-585.4 1313.49,-585.97"/>
<polyline fill="none" stroke="#f77f00" stroke-width="1.8" points="1313.04,-591.05 1308.24,-589.64"/>
<text text-anchor="middle" x="1085.62" y="-543.98" font-family="Helvetica Neue" font-size="14.00"> </text>
<text text-anchor="middle" x="1066.52" y="-514.53" font-family="Helvetica Neue" font-size="14.00">BelongsTo</text>
<text text-anchor="middle" x="1066.52" y="-497.28" font-family="Helvetica Neue" font-size="14.00">priceCode</text>
</g>
<!-- appmodelsproductcategory -->
<g id="node14" class="node">
<title>appmodelsproductcategory</title>
<polygon fill="none" stroke="black" points="1147.25,-404.5 1024,-404.5 1024,-304.5 1147.25,-304.5 1147.25,-404.5"/>
<polygon fill="#d3d3d3" stroke="none" points="1024,-365.25 1024,-404.5 1147.25,-404.5 1147.25,-365.25 1024,-365.25"/>
<polygon fill="none" stroke="black" points="1024,-365.25 1024,-404.5 1147.25,-404.5 1147.25,-365.25 1024,-365.25"/>
<text text-anchor="start" x="1035" y="-380.2" font-family="Helvetica Neue" font-size="14.00" fill="#333333">ProductCategory</text>
</g>
<!-- appmodelsproduct&#45;&gt;appmodelsproductcategory -->
<g id="edge21" class="edge">
<title>appmodelsproduct:product_category_id&#45;&gt;appmodelsproductcategory:id</title>
<path fill="none" stroke="#f77f00" stroke-width="1.8" d="M885.91,-426.87C925.83,-412.33 978.46,-393.16 1019.52,-378.21"/>
<polygon fill="#f77f00" stroke="#f77f00" stroke-width="1.8" points="885.93,-426.86 874.99,-426.05 880.66,-428.78 877.1,-430.08 877.1,-430.08 877.1,-430.08 880.66,-428.78 878.07,-434.51 885.93,-426.86"/>
<polygon fill="#f77f00" stroke="#f77f00" stroke-width="1.8" points="1021.31,-372.23 1024.73,-381.63 1022.86,-382.32 1019.43,-372.92 1021.31,-372.23"/>
<polyline fill="none" stroke="#f77f00" stroke-width="1.8" points="1023.96,-376.59 1019.27,-378.3"/>
<text text-anchor="middle" x="949.75" y="-408.27" font-family="Helvetica Neue" font-size="14.00"> </text>
<text text-anchor="middle" x="1003.34" y="-423.74" font-family="Helvetica Neue" font-size="14.00">BelongsTo</text>
<text text-anchor="middle" x="1003.34" y="-406.49" font-family="Helvetica Neue" font-size="14.00">productCategory</text>
</g>
<!-- appmodelspricecode&#45;&gt;appmodelsproductrate -->
<g id="edge20" class="edge">
<title>appmodelspricecode:id&#45;&gt;appmodelsproductrate:price_code_id</title>
<path fill="none" stroke="#fcbf49" stroke-width="1.8" d="M1313.04,-620.17C1266.31,-634.07 1196.07,-654.95 1146.23,-669.77"/>
<polygon fill="#fcbf49" stroke="#fcbf49" stroke-width="1.8" points="1146.09,-669.82 1135.22,-668.36 1140.72,-671.41 1137.08,-672.5 1137.08,-672.5 1137.08,-672.5 1140.72,-671.41 1137.78,-676.98 1146.09,-669.82"/>
<text text-anchor="middle" x="1221.5" y="-651.68" font-family="Helvetica Neue" font-size="14.00"> </text>
<text text-anchor="middle" x="1189.14" y="-631.67" font-family="Helvetica Neue" font-size="14.00">HasMany</text>
<text text-anchor="middle" x="1189.14" y="-614.42" font-family="Helvetica Neue" font-size="14.00">productRates</text>
</g>
<!-- appmodelspricecode&#45;&gt;appmodelsproduct -->
<g id="edge19" class="edge">
<title>appmodelspricecode:id&#45;&gt;appmodelsproduct:price_code_id</title>
<path fill="none" stroke="#fcbf49" stroke-width="1.8" d="M1331.78,-555.12C1272.39,-457.32 1147.25,-251.25 1147.25,-251.25 1147.25,-251.25 1024,-251.25 1024,-251.25 1024,-251.25 941.53,-333.61 883.18,-391.9"/>
<polygon fill="#fcbf49" stroke="#fcbf49" stroke-width="1.8" points="883.33,-391.74 873.07,-395.62 879.37,-395.7 876.68,-398.38 876.68,-398.38 876.68,-398.38 879.37,-395.7 879.43,-401.99 883.33,-391.74"/>
<text text-anchor="middle" x="1085.62" y="-255.2" font-family="Helvetica Neue" font-size="14.00"> </text>
<text text-anchor="middle" x="1128.12" y="-252.15" font-family="Helvetica Neue" font-size="14.00">HasMany</text>
<text text-anchor="middle" x="1128.12" y="-234.9" font-family="Helvetica Neue" font-size="14.00">products</text>
</g>
<!-- appmodelsproductcategory&#45;&gt;appmodelsproduct -->
<g id="edge25" class="edge">
<title>appmodelsproductcategory:id&#45;&gt;appmodelsproduct:product_category_id</title>
<path fill="none" stroke="#fcbf49" stroke-width="1.8" d="M1023.68,-361.06C987.06,-364.99 947.5,-369.25 947.5,-369.25 947.5,-369.25 915.51,-390.2 884.43,-410.56"/>
<polygon fill="#fcbf49" stroke="#fcbf49" stroke-width="1.8" points="884.58,-410.46 873.75,-412.17 879.9,-413.53 876.72,-415.61 876.72,-415.61 876.72,-415.61 879.9,-413.53 878.68,-419.7 884.58,-410.46"/>
<text text-anchor="middle" x="949.75" y="-373.2" font-family="Helvetica Neue" font-size="14.00"> </text>
<text text-anchor="middle" x="920.36" y="-355.88" font-family="Helvetica Neue" font-size="14.00">HasMany</text>
<text text-anchor="middle" x="920.36" y="-338.63" font-family="Helvetica Neue" font-size="14.00">products</text>
</g>
<!-- appmodelsusertype&#45;&gt;appmodelsuser -->
<g id="edge30" class="edge">
<title>appmodelsusertype:id&#45;&gt;appmodelsuser:user_type_id</title>
<path fill="none" stroke="#fcbf49" stroke-width="1.8" d="M1035.33,-817.48C992.15,-780.69 929.39,-727.19 883.95,-688.47"/>
<polygon fill="#fcbf49" stroke="#fcbf49" stroke-width="1.8" points="884.03,-688.54 879.34,-678.62 879.77,-684.9 876.88,-682.44 876.88,-682.44 876.88,-682.44 879.77,-684.9 873.5,-685.47 884.03,-688.54"/>
<text text-anchor="middle" x="949.75" y="-746.85" font-family="Helvetica Neue" font-size="14.00"> </text>
<text text-anchor="middle" x="987.39" y="-739.68" font-family="Helvetica Neue" font-size="14.00">HasMany</text>
<text text-anchor="middle" x="987.39" y="-722.43" font-family="Helvetica Neue" font-size="14.00">users</text>
</g>
<!-- appmodelscustomvoucher -->
<g id="node16" class="node">
<title>appmodelscustomvoucher</title>
<polygon fill="none" stroke="black" points="118,-920.5 0,-920.5 0,-820.5 118,-820.5 118,-920.5"/>
<polygon fill="#d3d3d3" stroke="none" points="0,-881.25 0,-920.5 118,-920.5 118,-881.25 0,-881.25"/>
<polygon fill="none" stroke="black" points="0,-881.25 0,-920.5 118,-920.5 118,-881.25 0,-881.25"/>
<text text-anchor="start" x="11" y="-896.2" font-family="Helvetica Neue" font-size="14.00" fill="#333333">CustomVoucher</text>
</g>
</g>
</svg>
